<?xml version="1.0" standalone="no"?>
<!DOCTYPE svg PUBLIC "-//W3C//DTD SVG 20010904//EN"
 "http://www.w3.org/TR/2001/REC-SVG-20010904/DTD/svg10.dtd">
<svg version="1.0" xmlns="http://www.w3.org/2000/svg"
 width="388.000000pt" height="350.000000pt" viewBox="0 0 388.000000 350.000000"
 preserveAspectRatio="xMidYMid meet">

<g transform="translate(0.000000,350.000000) scale(0.100000,-0.100000)"
fill="#000000" stroke="none">
<path d="M0 1750 l0 -1750 1940 0 1940 0 0 1750 0 1750 -1940 0 -1940 0 0
-1750z m1646 1473 c-8 -15 -15 -25 -16 -21 0 12 23 58 27 54 3 -2 -2 -17 -11
-33z m55 -134 c-25 -11 -52 -25 -60 -32 -14 -11 -14 -10 -1 7 16 20 65 45 90
45 8 0 -5 -9 -29 -20z m86 -71 c12 -10 7 -202 -7 -227 -6 -11 -22 -14 -58 -12
-47 2 -51 1 -72 -33 -12 -20 -26 -36 -31 -36 -5 0 -9 -4 -9 -10 0 -5 9 -10 20
-10 11 0 20 -4 20 -10 0 -5 5 -10 12 -10 20 0 99 -42 105 -56 5 -15 -31 -100
-54 -126 -12 -13 -32 -18 -72 -19 l-56 0 60 -18 c82 -23 86 -26 75 -57 -7 -16
-7 -23 0 -19 5 3 17 2 26 -3 11 -6 13 -11 5 -16 -6 -4 -11 -27 -11 -50 l0 -44
45 -6 c47 -7 47 -8 58 -78 3 -22 0 -27 -26 -32 -16 -3 -51 -6 -77 -6 -47 0
-47 0 -54 -37 -9 -57 -7 -91 5 -95 19 -6 1 -126 -20 -133 -9 -3 -23 -22 -30
-43 -23 -68 -63 -141 -80 -146 -9 -2 -50 -8 -91 -12 -75 -8 -75 -8 -30 -15 25
-4 135 -11 245 -15 110 -4 193 -10 185 -12 -8 -3 -18 -10 -22 -15 -17 -26
-470 -14 -504 14 -19 15 -18 39 2 39 13 0 14 7 7 43 -13 68 -6 232 17 396 11
85 19 155 17 157 -2 3 -28 -29 -56 -71 -122 -176 -174 -356 -170 -586 2 -122
1 -139 -16 -155 -18 -19 -18 -19 21 -22 l39 -3 -4 -57 c-2 -37 -9 -61 -20 -69
-14 -11 -11 -12 21 -13 20 0 48 5 60 11 16 7 32 7 50 0 23 -8 27 -17 30 -63 5
-63 -5 -82 -20 -39 -8 24 -17 31 -36 31 -24 0 -26 -4 -26 -43 0 -24 6 -65 14
-91 14 -47 14 -48 -5 -30 -21 19 -26 6 -6 -16 6 -8 -1 -4 -17 10 l-28 25 7
-25 c6 -20 5 -22 -5 -13 -7 6 -18 9 -25 7 -6 -3 -19 12 -28 33 -23 54 -26 70
-28 143 -2 36 -8 70 -14 77 -7 6 -15 33 -19 59 -3 27 -16 69 -29 94 -20 41
-22 59 -22 210 0 140 4 175 22 235 12 39 31 102 42 140 24 82 90 201 165 300
56 72 96 108 142 125 18 7 24 15 20 26 -4 12 11 34 49 72 l55 55 0 104 c0 90
-3 106 -20 123 -12 12 -20 33 -20 53 0 21 8 41 20 52 23 21 26 9 5 -19 -8 -11
-15 -27 -15 -36 0 -15 50 -80 62 -80 3 0 11 37 17 83 7 45 14 90 17 99 9 32
136 44 171 16z m-789 -52 c10 -22 8 -24 -19 -30 -25 -5 -29 -9 -24 -26 4 -12
2 -20 -5 -20 -7 0 -14 8 -17 18 -3 14 -11 18 -28 14 -17 -3 -24 -12 -27 -36
l-3 -32 75 15 c66 12 76 17 76 35 -1 17 8 22 47 29 26 5 50 7 53 4 3 -3 10
-23 14 -44 8 -34 7 -36 -6 -19 -20 29 -17 10 14 -69 l28 -70 -29 -60 c-16 -33
-31 -62 -33 -64 -1 -2 -57 41 -124 94 -72 59 -124 95 -130 89 -10 -10 233
-216 258 -218 9 -1 25 23 42 63 l28 65 27 -55 c15 -30 38 -69 52 -87 14 -18
23 -34 22 -35 -2 -1 -18 -10 -36 -19 -18 -9 -87 -29 -155 -43 -128 -28 -166
-42 -88 -31 50 6 49 6 -76 -30 l-51 -15 18 -36 c21 -40 17 -48 -22 -58 -21 -5
-27 -2 -31 13 -3 10 -1 26 4 35 6 12 3 25 -12 44 -19 27 -132 450 -124 465 3
4 31 12 63 19 l59 11 -10 35 c-5 19 -8 36 -6 38 3 3 134 32 154 34 6 1 16 -10
22 -23z m862 -68 c0 -7 -4 -19 -9 -27 -11 -17 -25 3 -17 24 7 18 26 20 26 3z
m-594 -54 c-3 -9 -6 -20 -6 -25 0 -5 -9 -9 -20 -9 -11 0 -20 4 -20 9 0 23 14
41 32 41 14 0 18 -5 14 -16z m534 -277 c0 -7 11 -29 25 -50 31 -45 17 -49 -19
-6 -25 29 -37 87 -16 74 6 -3 10 -12 10 -18z m1418 -137 c21 -13 32 -28 32
-42 0 -21 -71 -429 -76 -436 -5 -7 -268 -33 -404 -40 l-145 -7 -3 -37 c-3 -33
-7 -38 -35 -43 -20 -4 -64 2 -110 14 -42 11 -104 23 -137 27 -60 7 -60 7 -60
40 0 30 3 34 33 39 27 5 37 14 51 46 21 48 41 54 151 46 l83 -6 27 147 c37
200 42 220 67 233 12 6 103 17 202 24 270 18 286 18 324 -5z m-1241 -247 c-2
-16 -4 -3 -4 27 0 30 2 43 4 28 2 -16 2 -40 0 -55z m-547 -654 c8 -22 31 -60
52 -84 l38 -43 0 -91 c0 -74 -3 -91 -15 -91 -12 0 -15 18 -15 99 0 75 -4 101
-15 111 -13 11 -15 -1 -15 -100 0 -85 -3 -111 -12 -108 -9 3 -14 41 -16 134
-4 173 -22 189 -22 19 0 -172 -18 -153 -23 25 -2 74 -7 146 -11 160 -5 19 -4
18 8 -5 l15 -30 -6 35 c-6 30 -4 33 9 23 8 -7 21 -31 28 -54z m81 30 c12 -19
32 -129 25 -136 -16 -17 -79 67 -97 130 -8 29 -8 29 28 24 20 -4 40 -12 44
-18z m89 -9 c6 -11 13 -56 17 -100 5 -68 4 -80 -11 -86 -13 -5 -16 -20 -16
-75 0 -55 -3 -69 -15 -69 -12 0 -15 15 -15 75 0 41 5 85 11 98 9 19 7 41 -5
95 -20 87 -20 82 4 82 10 0 24 -9 30 -20z m120 -61 c6 -84 0 -118 -25 -135
-20 -13 -21 -11 -20 29 0 23 -4 73 -8 110 l-8 68 28 -3 c27 -3 28 -6 33 -69z
m104 45 c27 -10 21 -69 -9 -88 l-25 -16 0 55 c0 55 4 61 34 49z m186 -254 c0
-47 -3 -60 -15 -60 -11 0 -15 13 -15 53 0 30 3 57 7 60 17 17 23 2 23 -53z
m-62 -8 c2 -42 0 -52 -12 -52 -13 0 -16 12 -16 56 0 73 24 70 28 -4z m-58 -2
c0 -22 -4 -40 -10 -40 -5 0 -10 18 -10 40 0 22 5 40 10 40 6 0 10 -18 10 -40z
m180 -25 c0 -8 -4 -15 -10 -15 -5 0 -7 7 -4 15 4 8 8 15 10 15 2 0 4 -7 4 -15z
m-103 -81 c13 -21 18 -63 24 -224 4 -109 10 -203 14 -209 3 -6 25 -11 48 -12
l42 0 -45 -21 c-25 -11 -65 -23 -90 -25 -25 -3 -51 -11 -59 -17 -12 -9 -13 -6
-6 19 9 35 10 104 4 315 -3 115 -1 161 9 178 17 29 38 28 59 -4z m-437 -30 c6
-14 10 -97 10 -185 0 -91 4 -169 10 -180 8 -14 22 -19 53 -20 l42 -2 -45 -8
c-25 -4 -65 -8 -90 -10 -25 -1 -34 -3 -20 -6 14 -2 41 -7 60 -10 32 -7 31 -8
-25 -13 l-60 -6 75 -9 c83 -10 70 -21 -30 -25 l-55 -3 75 -11 75 -12 -45 -7
c-25 -4 -56 -8 -70 -11 -14 -2 -5 -4 20 -5 80 -2 83 -21 3 -21 l-72 0 3 98 c3
53 0 147 -5 207 -12 145 -5 194 33 234 35 38 46 39 58 5z m517 -475 c-10 -6
-46 -16 -80 -24 l-62 -13 45 -3 45 -2 -40 -6 c-27 -4 -43 -2 -48 7 -13 20 2
32 41 33 20 1 48 5 62 9 38 12 59 12 37 -1z m-22 -74 c6 -2 -19 -3 -55 -4 -37
0 -57 4 -47 8 17 6 79 4 102 -4z m-538 -21 c-3 -3 -12 -4 -19 -1 -8 3 -5 6 6
6 11 1 17 -2 13 -5z m-1 -92 c5 -24 3 -33 -10 -38 -25 -9 -29 0 -21 46 8 46
21 43 31 -8z m514 -176 c0 -6 -7 -2 -15 8 -8 11 -15 25 -15 30 0 6 7 2 15 -8
8 -11 15 -25 15 -30z m-558 -18 c-16 -16 -37 4 -28 28 6 16 8 16 23 1 13 -13
15 -20 5 -29z"/>
<path d="M1676 2921 c-19 -21 -19 -21 12 -15 25 5 32 3 32 -10 0 -9 -5 -16
-11 -16 -5 0 -7 -5 -4 -10 4 -6 10 -8 15 -5 4 3 10 0 12 -7 2 -6 14 6 26 27
13 20 21 40 18 42 -2 3 -22 7 -43 10 -30 4 -42 1 -57 -16z"/>
<path d="M1689 2328 c-8 -22 -8 -68 0 -68 6 0 11 6 11 13 0 6 3 22 6 35 4 13
2 22 -5 22 -6 0 -11 -1 -12 -2z"/>
<path d="M1590 2228 c0 -49 -19 -106 -38 -117 -15 -9 -14 -10 7 -11 29 0 105
75 97 97 -3 8 -1 11 4 8 21 -13 9 9 -17 31 -38 33 -53 30 -53 -8z"/>
<path d="M2860 2296 c-6 -8 -10 -25 -8 -38 2 -19 5 -17 15 15 12 41 11 44 -7
23z"/>
<path d="M2766 2231 c5 -5 20 -12 34 -15 24 -7 24 -6 6 8 -21 17 -57 23 -40 7z"/>
<path d="M3032 2198 c-14 -19 -62 -116 -62 -127 0 -12 72 -51 94 -51 16 0 76
107 76 134 0 8 -21 24 -46 36 -55 24 -49 23 -62 8z m8 -107 c0 -6 -4 -13 -10
-16 -5 -3 -10 1 -10 9 0 9 5 16 10 16 6 0 10 -4 10 -9z"/>
</g>
</svg>
